<svg id="Icons" height="512" viewBox="0 0 74 74" width="512" xmlns="http://www.w3.org/2000/svg"><path d="m38.03 60.16h-2.9a1 1 0 1 1 0-2h2.9a1 1 0 0 1 0 2z"/><path d="m62.66 60.16h-7.66a1 1 0 0 1 0-2h7.66a7.34 7.34 0 1 0 0-14.68h-.85a1 1 0 0 1 -.989-1.154 15.477 15.477 0 0 0 .2-2.416 16.961 16.961 0 0 0 -32.976-5.552 1 1 0 0 1 -1.232.629 11.41 11.41 0 0 0 -3.283-.487 11.2 11.2 0 0 0 -9.7 5.62c-.013.028-.026.055-.041.081a10.891 10.891 0 0 0 -1.044 2.535 1 1 0 0 1 -.967.744h-.44a7.34 7.34 0 1 0 0 14.68h16.792a1 1 0 0 1 0 2h-16.79a9.34 9.34 0 0 1 -.3-18.675 13.052 13.052 0 0 1 .971-2.189c.013-.03.027-.059.043-.088a13.188 13.188 0 0 1 14.426-6.375 18.954 18.954 0 0 1 36.54 7.077c0 .516-.026 1.037-.077 1.574a9.34 9.34 0 0 1 -.283 18.676z"/><path d="m48 60.16h-2.97a1 1 0 0 1 0-2h2.97a1 1 0 0 1 0 2z"/><path d="m12.919 40.707a1 1 0 0 1 -.8-.4 11.65 11.65 0 0 1 -2.2-5.447 11.8 11.8 0 0 1 21.826-7.634 1 1 0 1 1 -1.717 1.024 9.8 9.8 0 0 0 -18.128 6.35 9.626 9.626 0 0 0 1.825 4.513 1 1 0 0 1 -.8 1.6z"/><path d="m19.393 17.652a1 1 0 0 1 -.991-.868l-.241-1.809a1 1 0 0 1 1.983-.265l.241 1.81a1 1 0 0 1 -.86 1.123.987.987 0 0 1 -.132.009z"/><path d="m31.813 20.955a1 1 0 0 1 -.793-1.607l1.108-1.448a1 1 0 0 1 1.59 1.215l-1.109 1.45a1 1 0 0 1 -.796.39z"/><path d="m3.163 36.761a1 1 0 0 1 -.132-1.991l1.809-.242a1 1 0 1 1 .265 1.982l-1.805.242a1.017 1.017 0 0 1 -.137.009z"/><path d="m8.275 24.1a1 1 0 0 1 -.606-.205l-1.45-1.109a1 1 0 1 1 1.215-1.586l1.45 1.109a1 1 0 0 1 -.609 1.791z"/></svg>